<svg width="80" height="75" viewBox="0 0 80 75" fill="none" xmlns="http://www.w3.org/2000/svg">
<path d="M45.4359 9.90386L40 15L32.6986 8.91547C31.57 7.97498 30.3364 7.16819 29.0224 6.5112L28.0506 6.02529C26.0444 5.02222 23.8323 4.5 21.5893 4.5C18.9156 4.5 16.2944 5.24193 14.0173 6.64321L13.1675 7.16618C11.7297 8.05098 10.4237 9.13394 9.28806 10.3831L8.48926 11.2618C6.84993 13.0651 5.62842 15.2076 4.91172 17.5369C4.30913 19.4953 4.07489 21.5485 4.22088 23.5923L4.26869 24.2616C4.42191 26.4067 4.91732 28.5135 5.73615 30.5021L6.5958 32.5898C7.52923 34.8567 8.70379 37.0166 10.0992 39.0322L12.5 42.5L18 48.5L40 69L61.5 48.5L67 42.5L69.4613 39.3003C71.1463 37.1098 72.5331 34.7053 73.5854 32.1499L74.2639 30.5021C75.0827 28.5135 75.5781 26.4067 75.7313 24.2616L75.7791 23.5923C75.9251 21.5485 75.6909 19.4953 75.0883 17.5369C74.3716 15.2076 73.1501 13.0651 71.5107 11.2618L70.4022 10.0424C69.4709 9.01799 68.4175 8.11169 67.2656 7.34376L66.9671 7.1447C64.3803 5.42022 61.341 4.5 58.2322 4.5C56.0996 4.5 53.9893 4.93317 52.0291 5.77322L51.2305 6.11549C49.0933 7.03146 47.1323 8.3135 45.4359 9.90386Z" stroke="#556541" stroke-width="8"/>
</svg>
