<svg width="94" height="87" viewBox="0 0 94 87" fill="none" xmlns="http://www.w3.org/2000/svg">
<path d="M53.4919 10.452L47 16.5349L38.2794 9.27167C36.931 8.14859 35.4572 7.18522 33.8874 6.40075L32.7274 5.82107C30.3309 4.62347 27.6886 4 25.0095 4C21.8159 4 18.6848 4.88582 15.9644 6.55897L14.9506 7.1825C13.2329 8.23903 11.6725 9.53228 10.3155 11.0241L9.36124 12.0733C7.40378 14.2253 5.9451 16.7826 5.08915 19.563C4.3693 21.9012 4.08947 24.3527 4.26388 26.793L4.32094 27.5915C4.50395 30.1522 5.09565 32.6672 6.07358 35.0409L7.10073 37.534C8.21553 40.2399 9.61825 42.818 11.2847 45.2238L14.1528 49.3643L20.7222 56.5271L47 81L72.6806 56.5271L79.25 49.3643L82.1906 45.5436C84.2028 42.9292 85.8589 40.0592 87.1156 37.0089L87.9264 35.0409C88.9044 32.6672 89.496 30.1522 89.6791 27.5915L89.7361 26.793C89.9105 24.3527 89.6307 21.9012 88.9109 19.563C88.0549 16.7826 86.5962 14.2253 84.6388 12.0733L83.3143 10.6172C82.2016 9.39381 80.943 8.3115 79.5667 7.39451L79.2115 7.15783C76.1212 5.09872 72.4907 4 68.7772 4C66.23 4 63.7094 4.51713 61.3679 5.52006L60.4148 5.92832C57.8616 7.02198 55.5188 8.55285 53.4919 10.452Z" fill="#556541" stroke="#556541" stroke-width="8"/>
</svg>
