<svg width="190" height="40" viewBox="0 0 190 40" fill="none" xmlns="http://www.w3.org/2000/svg">
<rect width="190" height="40" rx="10" fill="#F3F4EE"/>
<path d="M16.5101 27.86C15.3021 27.86 14.1821 27.612 13.1501 27.116C12.1261 26.612 11.3181 25.924 10.7261 25.052L13.2941 23.324C13.7501 23.788 14.2381 24.152 14.7581 24.416C15.2861 24.68 15.8621 24.812 16.4861 24.812C17.1341 24.812 17.6381 24.672 17.9981 24.392C18.3661 24.112 18.5501 23.74 18.5501 23.276C18.5501 22.828 18.4021 22.524 18.1061 22.364C17.8181 22.204 17.4501 22.12 17.0021 22.112C16.5621 22.104 16.1181 22.1 15.6701 22.1H14.9021V19.556H15.6701C16.3421 19.556 16.9141 19.5 17.3861 19.388C17.8581 19.268 18.0941 18.94 18.0941 18.404C18.0941 17.956 17.9301 17.644 17.6021 17.468C17.2741 17.292 16.8941 17.204 16.4621 17.204C15.8861 17.204 15.3061 17.328 14.7221 17.576C14.1381 17.824 13.6061 18.116 13.1261 18.452L11.3261 16.22C12.0621 15.604 12.8781 15.112 13.7741 14.744C14.6781 14.368 15.6221 14.18 16.6061 14.18C17.4381 14.18 18.2221 14.324 18.9581 14.612C19.7021 14.9 20.3021 15.336 20.7581 15.92C21.2221 16.496 21.4541 17.22 21.4541 18.092C21.4541 18.652 21.3421 19.2 21.1181 19.736C20.8941 20.272 20.5101 20.804 19.9661 21.332L19.9421 20.3C20.3421 20.508 20.6861 20.776 20.9741 21.104C21.2701 21.424 21.4941 21.796 21.6461 22.22C21.8061 22.644 21.8861 23.108 21.8861 23.612C21.8861 24.54 21.6381 25.32 21.1421 25.952C20.6461 26.584 19.9901 27.06 19.1741 27.38C18.3581 27.7 17.4701 27.86 16.5101 27.86ZM30.5595 27.86C29.2315 27.86 28.0595 27.576 27.0435 27.008C26.0355 26.432 25.2435 25.644 24.6675 24.644C24.0995 23.636 23.8155 22.484 23.8155 21.188C23.8155 19.772 24.0955 18.54 24.6555 17.492C25.2155 16.444 25.9875 15.632 26.9715 15.056C27.9555 14.472 29.0875 14.18 30.3675 14.18C31.7275 14.18 32.8835 14.5 33.8355 15.14C34.7875 15.78 35.4915 16.68 35.9475 17.84C36.4035 19 36.5635 20.364 36.4275 21.932H33.1995V20.732C33.1995 19.412 32.9875 18.464 32.5635 17.888C32.1475 17.304 31.4635 17.012 30.5115 17.012C29.3995 17.012 28.5795 17.352 28.0515 18.032C27.5315 18.704 27.2715 19.7 27.2715 21.02C27.2715 22.228 27.5315 23.164 28.0515 23.828C28.5795 24.484 29.3515 24.812 30.3675 24.812C31.0075 24.812 31.5555 24.672 32.0115 24.392C32.4675 24.112 32.8155 23.708 33.0555 23.18L36.3195 24.116C35.8315 25.3 35.0595 26.22 34.0035 26.876C32.9555 27.532 31.8075 27.86 30.5595 27.86ZM26.2635 21.932V19.508H34.8555V21.932H26.2635ZM38.7615 27.5V14.54H41.4015L45.9135 22.94L50.4255 14.54H53.0655V27.5H49.9455V21.044L46.4895 27.5H45.3375L41.8815 21.044V27.5H38.7615ZM62.1459 27.86C60.8019 27.86 59.6499 27.56 58.6899 26.96C57.7299 26.36 56.9939 25.544 56.4819 24.512C55.9699 23.48 55.7139 22.316 55.7139 21.02C55.7139 19.708 55.9779 18.536 56.5059 17.504C57.0419 16.472 57.7939 15.66 58.7619 15.068C59.7299 14.476 60.8739 14.18 62.1939 14.18C63.7219 14.18 65.0019 14.568 66.0339 15.344C67.0739 16.112 67.7379 17.164 68.0259 18.5L64.7619 19.364C64.5699 18.692 64.2339 18.168 63.7539 17.792C63.2819 17.416 62.7459 17.228 62.1459 17.228C61.4579 17.228 60.8939 17.396 60.4539 17.732C60.0139 18.06 59.6899 18.512 59.4819 19.088C59.2739 19.656 59.1699 20.3 59.1699 21.02C59.1699 22.148 59.4179 23.064 59.9139 23.768C60.4179 24.464 61.1619 24.812 62.1459 24.812C62.8819 24.812 63.4419 24.644 63.8259 24.308C64.2099 23.972 64.4979 23.492 64.6899 22.868L68.0259 23.564C67.6579 24.94 66.9619 26 65.9379 26.744C64.9139 27.488 63.6499 27.86 62.1459 27.86ZM73.5941 27.5V17.42H69.3461V14.54H81.1061V17.42H76.8581V27.5H73.5941ZM89.747 27.86C88.459 27.86 87.383 27.56 86.519 26.96C85.655 26.36 85.003 25.544 84.563 24.512C84.131 23.48 83.915 22.316 83.915 21.02C83.915 19.724 84.131 18.56 84.563 17.528C84.995 16.496 85.631 15.68 86.471 15.08C87.311 14.48 88.347 14.18 89.579 14.18C90.819 14.18 91.899 14.476 92.819 15.068C93.739 15.66 94.451 16.472 94.955 17.504C95.467 18.528 95.723 19.7 95.723 21.02C95.723 22.316 95.471 23.48 94.967 24.512C94.471 25.544 93.775 26.36 92.879 26.96C91.983 27.56 90.939 27.86 89.747 27.86ZM83.363 33.26V14.54H86.243V23.42H86.651V33.26H83.363ZM89.219 24.956C89.923 24.956 90.499 24.78 90.947 24.428C91.395 24.076 91.727 23.604 91.943 23.012C92.159 22.412 92.267 21.748 92.267 21.02C92.267 20.3 92.155 19.644 91.931 19.052C91.707 18.452 91.359 17.976 90.887 17.624C90.423 17.264 89.827 17.084 89.099 17.084C88.419 17.084 87.867 17.248 87.443 17.576C87.027 17.904 86.723 18.364 86.531 18.956C86.339 19.548 86.243 20.236 86.243 21.02C86.243 21.804 86.339 22.492 86.531 23.084C86.723 23.676 87.035 24.136 87.467 24.464C87.907 24.792 88.491 24.956 89.219 24.956ZM104.196 27.86C102.892 27.86 101.748 27.568 100.764 26.984C99.7796 26.4 99.0116 25.596 98.4596 24.572C97.9156 23.54 97.6436 22.356 97.6436 21.02C97.6436 19.668 97.9236 18.48 98.4836 17.456C99.0436 16.424 99.8156 15.62 100.8 15.044C101.784 14.468 102.916 14.18 104.196 14.18C105.5 14.18 106.644 14.472 107.628 15.056C108.62 15.64 109.392 16.448 109.944 17.48C110.496 18.504 110.772 19.684 110.772 21.02C110.772 22.364 110.492 23.552 109.932 24.584C109.38 25.608 108.608 26.412 107.616 26.996C106.632 27.572 105.492 27.86 104.196 27.86ZM104.196 24.812C105.244 24.812 106.024 24.46 106.536 23.756C107.056 23.044 107.316 22.132 107.316 21.02C107.316 19.868 107.052 18.948 106.524 18.26C106.004 17.572 105.228 17.228 104.196 17.228C103.484 17.228 102.9 17.388 102.444 17.708C101.988 18.028 101.648 18.472 101.424 19.04C101.208 19.608 101.1 20.268 101.1 21.02C101.1 22.18 101.36 23.104 101.88 23.792C102.408 24.472 103.18 24.812 104.196 24.812ZM119.602 13.1C118.898 13.1 118.258 12.928 117.682 12.584C117.106 12.24 116.646 11.78 116.302 11.204C115.958 10.628 115.786 9.988 115.786 9.284H118.306C118.306 9.644 118.43 9.952 118.678 10.208C118.934 10.456 119.242 10.58 119.602 10.58C119.962 10.58 120.266 10.456 120.514 10.208C120.77 9.952 120.898 9.644 120.898 9.284H123.418C123.418 9.988 123.246 10.628 122.902 11.204C122.558 11.78 122.098 12.24 121.522 12.584C120.946 12.928 120.306 13.1 119.602 13.1ZM124.954 14.54V27.5H121.834V19.58L115.978 27.5H113.386V14.54H116.506V22.196L122.386 14.54H124.954Z" fill="#363636"/>
<path d="M128.293 27.5V14.54H139.861V27.5H136.597V17.588H131.557V27.5H128.293ZM146.823 27.86C145.895 27.86 145.107 27.684 144.459 27.332C143.819 26.972 143.331 26.496 142.995 25.904C142.667 25.304 142.503 24.644 142.503 23.924C142.503 23.324 142.595 22.776 142.779 22.28C142.963 21.784 143.259 21.348 143.667 20.972C144.083 20.588 144.639 20.268 145.335 20.012C145.815 19.836 146.387 19.68 147.051 19.544C147.715 19.408 148.467 19.28 149.307 19.16C150.147 19.032 151.071 18.892 152.079 18.74L150.903 19.388C150.903 18.62 150.719 18.056 150.351 17.696C149.983 17.336 149.367 17.156 148.503 17.156C148.023 17.156 147.523 17.272 147.003 17.504C146.483 17.736 146.119 18.148 145.911 18.74L142.959 17.804C143.287 16.732 143.903 15.86 144.807 15.188C145.711 14.516 146.943 14.18 148.503 14.18C149.647 14.18 150.663 14.356 151.551 14.708C152.439 15.06 153.111 15.668 153.567 16.532C153.823 17.012 153.975 17.492 154.023 17.972C154.071 18.452 154.095 18.988 154.095 19.58V27.5H151.239V24.836L151.647 25.388C151.015 26.26 150.331 26.892 149.595 27.284C148.867 27.668 147.943 27.86 146.823 27.86ZM147.519 25.292C148.119 25.292 148.623 25.188 149.031 24.98C149.447 24.764 149.775 24.52 150.015 24.248C150.263 23.976 150.431 23.748 150.519 23.564C150.687 23.212 150.783 22.804 150.807 22.34C150.839 21.868 150.855 21.476 150.855 21.164L151.815 21.404C150.847 21.564 150.063 21.7 149.463 21.812C148.863 21.916 148.379 22.012 148.011 22.1C147.643 22.188 147.319 22.284 147.039 22.388C146.719 22.516 146.459 22.656 146.259 22.808C146.067 22.952 145.923 23.112 145.827 23.288C145.739 23.464 145.695 23.66 145.695 23.876C145.695 24.172 145.767 24.428 145.911 24.644C146.063 24.852 146.275 25.012 146.547 25.124C146.819 25.236 147.143 25.292 147.519 25.292ZM163.575 27.86C162.287 27.86 161.211 27.56 160.347 26.96C159.483 26.36 158.831 25.544 158.391 24.512C157.959 23.48 157.743 22.316 157.743 21.02C157.743 19.724 157.959 18.56 158.391 17.528C158.823 16.496 159.459 15.68 160.299 15.08C161.139 14.48 162.175 14.18 163.407 14.18C164.647 14.18 165.727 14.476 166.647 15.068C167.567 15.66 168.279 16.472 168.783 17.504C169.295 18.528 169.551 19.7 169.551 21.02C169.551 22.316 169.299 23.48 168.795 24.512C168.299 25.544 167.603 26.36 166.707 26.96C165.811 27.56 164.767 27.86 163.575 27.86ZM157.191 33.26V14.54H160.071V23.42H160.479V33.26H157.191ZM163.047 24.956C163.751 24.956 164.327 24.78 164.775 24.428C165.223 24.076 165.555 23.604 165.771 23.012C165.987 22.412 166.095 21.748 166.095 21.02C166.095 20.3 165.983 19.644 165.759 19.052C165.535 18.452 165.187 17.976 164.715 17.624C164.251 17.264 163.655 17.084 162.927 17.084C162.247 17.084 161.695 17.248 161.271 17.576C160.855 17.904 160.551 18.364 160.359 18.956C160.167 19.548 160.071 20.236 160.071 21.02C160.071 21.804 160.167 22.492 160.359 23.084C160.551 23.676 160.863 24.136 161.295 24.464C161.735 24.792 162.319 24.956 163.047 24.956ZM172.168 27.5L172.192 14.54H175.504V20.78L179.896 14.54H183.928L179.248 21.02L184.24 27.5H179.992L175.504 21.26V27.5H172.168Z" fill="#556541"/>
</svg>
