<svg xmlns="http://www.w3.org/2000/svg">
<symbol id="arrow1" viewBox="0 0 12 7">
<path d="M1.3125 1L5.69646 5.29966C6.09081 5.68642 6.72405 5.68022 7.11075 5.28579L11.3125 1" stroke="#363636" stroke-linecap="round"/>
</symbol>
<symbol id="arrow2" viewBox="0 0 16 8">
  <path d="M15.354 4.354a.5.5 0 0 0 0-.708L12.172.464a.5.5 0 1 0-.708.708L14.293 4l-2.829 2.828a.5.5 0 1 0 .708.708l3.182-3.182ZM0 4v.5h15v-1H0V4Z"/>
</symbol>
<symbol id="board" viewBox="0 0 96 71">
  <path d="M4.512 1.031c-.384.288-.672 13.248-.672 28.8v28.128h17.28v-7.68h10.56c9.504 0 10.56.192 11.52 1.92.768 1.344.768 2.496 0 3.84-1.056 1.92-.768 1.92 24 1.92h24.96l-.192-28.608L91.68.839 48.384.551C24.576.455 4.8.647 4.512 1.031Zm72.288 14.4c-.096 1.728-26.592 21.408-28.896 21.408-.576 0-3.456-2.016-6.336-4.416l-5.184-4.416-7.104 5.376c-7.392 5.568-10.08 6.528-10.08 3.648.096-1.632 15.264-13.632 17.376-13.632.672 0 3.456 1.92 6.24 4.32 2.688 2.4 5.184 4.32 5.376 4.32.096 0 5.952-4.128 12.768-9.12 12.48-9.024 15.84-10.656 15.84-7.488ZM.384 63.144c-.288.768-.384 2.784-.192 4.608L.48 70.92h95.04v-8.64l-47.328-.288C8.16 61.8.864 61.992.384 63.144Z"/>
</symbol>
<symbol id="bus" viewBox="0 0 96 66">
  <path d="M5.952 2.64C.576 5.906 0 8.69 0 31.92c0 19.393.096 20.737 1.92 22.56 1.152 1.153 3.168 1.92 5.088 1.92 2.592 0 3.36.48 4.224 2.785 3.072 8.256 16.704 8.256 19.776 0l1.056-2.784h31.872l1.056 2.784c3.072 8.256 16.704 8.256 19.776.096.768-2.016 1.92-2.88 4.128-3.264 5.76-1.152 6.624-3.168 6.624-16.32-.096-11.424-.096-11.712-4.224-21.696-4.512-11.136-7.392-14.88-12.48-16.32C76.8 1.105 61.152.72 42.24.72 10.752.72 8.928.817 5.952 2.64Zm23.616 8.833c1.536 1.536 1.536 13.44 0 14.976-.672.672-4.224 1.152-9.408 1.152-5.184 0-8.736-.48-9.408-1.152-1.536-1.536-1.536-13.44 0-14.976.672-.672 4.224-1.152 9.408-1.152 5.184 0 8.736.48 9.408 1.152Zm30.72 0c1.536 1.536 1.536 13.44 0 14.976-1.536 1.536-19.2 1.536-20.736 0-.672-.672-1.152-3.84-1.152-7.488 0-3.648.48-6.816 1.152-7.488 1.536-1.536 19.2-1.536 20.736 0Zm27.744 7.392c1.728 4.512 3.168 8.256 3.168 8.448 0 .192-4.416.288-9.888.288-6.432 0-10.272-.384-11.04-1.152-1.536-1.536-1.536-13.44 0-14.976.768-.768 3.552-1.152 7.968-.96l6.624.288 3.168 8.064ZM26.4 49.2c3.168 3.072 3.168 7.488 0 10.56-3.072 3.168-7.488 3.168-10.56 0-1.536-1.44-2.4-3.456-2.4-5.28 0-1.824.864-3.84 2.4-5.28 1.44-1.536 3.456-2.4 5.28-2.4 1.824 0 3.84.864 5.28 2.4Zm53.76 0c4.8 4.704 1.44 12.96-5.28 12.96-3.936 0-7.68-3.744-7.68-7.68 0-3.936 3.744-7.68 7.68-7.68 1.824 0 3.84.864 5.28 2.4Z"/>
</symbol>
<symbol id="calculator" viewBox="0 0 94 94">
  <path d="M2.456 2.456C1.112 3.704.92 7.064.92 24.536V45.08h44.16V.92H24.536c-17.472 0-20.832.192-22.08 1.536ZM25.88 17.24v4.8h4.8c4.128 0 4.8.288 4.8 1.92s-.672 1.92-4.8 1.92h-4.8v4.8c0 4.128-.288 4.8-1.92 4.8s-1.92-.672-1.92-4.8v-4.8h-4.8c-4.128 0-4.8-.288-4.8-1.92s.672-1.92 4.8-1.92h4.8v-4.8c0-4.128.288-4.8 1.92-4.8s1.92.672 1.92 4.8ZM48.92 23v22.08h44.16V24.536c0-17.472-.192-20.832-1.536-22.08C90.296 1.112 86.936.92 69.464.92H48.92V23Zm34.56.96c0 1.824-.672 1.92-11.52 1.92-10.848 0-11.52-.096-11.52-1.92 0-1.824.672-1.92 11.52-1.92 10.848 0 11.52.096 11.52 1.92ZM.92 69.464c0 17.472.192 20.832 1.536 22.08 1.248 1.344 4.608 1.536 22.08 1.536H45.08V48.92H.92v20.544Zm20.352-3.552 2.688 2.592 2.688-2.592c5.28-4.992 8.352-1.92 3.36 3.36l-2.592 2.688 2.592 2.688c4.992 5.28 1.92 8.352-3.36 3.36l-2.688-2.592-2.688 2.592c-5.28 4.992-8.352 1.92-3.36-3.36l2.592-2.688-2.592-2.688c-4.992-5.28-1.92-8.352 3.36-3.36ZM48.92 71v22.08h20.544c17.472 0 20.832-.192 22.08-1.536 1.344-1.248 1.536-4.608 1.536-22.08V48.92H48.92V71Zm34.56-4.8c0 1.824-.672 1.92-11.52 1.92-10.848 0-11.52-.096-11.52-1.92 0-1.824.672-1.92 11.52-1.92 10.848 0 11.52.096 11.52 1.92Zm0 11.52c0 1.824-.672 1.92-11.52 1.92-10.848 0-11.52-.096-11.52-1.92 0-1.824.672-1.92 11.52-1.92 10.848 0 11.52.096 11.52 1.92Z"/>
</symbol>
<symbol id="check" viewBox="0 0 64 64">
  <path d="M60.877.858a5.334 5.334 0 0 1 1.578 7.376L27.9 61.567a5.333 5.333 0 0 1-8.481.623l-17.4-19.78a5.335 5.335 0 0 1 .48-7.528 5.335 5.335 0 0 1 7.528.481l12.75 14.494L53.501 2.434A5.335 5.335 0 0 1 60.877.858Z"/>
</symbol>
<symbol id="dimensions" viewBox="0 0 78 78">
  <path d="M.6 11.544c0 8.736.288 11.328 1.536 12.48 1.824 1.92 2.784 1.92 4.608 0 .96-.864 1.536-3.168 1.536-5.952v-4.416l9.984 9.792c5.472 5.376 10.368 9.792 10.944 9.792 1.344 0 4.032-2.688 4.032-4.032 0-.576-4.416-5.472-9.792-10.944L13.656 8.28h4.416c2.784 0 5.088-.576 5.952-1.536 1.92-1.824 1.92-2.784 0-4.608C22.872.888 20.28.6 11.544.6H.6v10.944Zm53.376-9.408c-.864.768-1.536 1.824-1.536 2.304 0 2.112 3.264 3.84 7.488 3.84h4.416l-9.792 9.984c-5.376 5.472-9.792 10.368-9.792 10.944 0 1.344 2.688 4.032 4.032 4.032.576 0 5.472-4.416 10.944-9.792l9.984-9.792v4.416c0 4.224 1.728 7.488 3.84 7.488.48 0 1.536-.672 2.304-1.536 1.248-1.152 1.536-3.744 1.536-12.48V.6H66.456c-8.736 0-11.328.288-12.48 1.536ZM18.264 54.552 8.28 64.344v-4.416c0-2.784-.576-5.088-1.536-5.952-1.824-1.92-2.784-1.92-4.608 0C.888 55.128.6 57.72.6 66.456V77.4h10.944c8.736 0 11.328-.288 12.48-1.536.864-.768 1.536-1.824 1.536-2.304 0-2.112-3.264-3.84-7.488-3.84h-4.416l9.792-9.984c5.376-5.472 9.792-10.368 9.792-10.944 0-1.344-2.688-4.032-4.032-4.032-.576 0-5.472 4.416-10.944 9.792Zm28.032-8.256c-.864.768-1.536 1.92-1.536 2.496 0 .576 4.416 5.472 9.792 10.944l9.792 9.984h-4.416c-2.784 0-5.088.576-5.952 1.536-1.92 1.824-1.92 2.784 0 4.608 1.152 1.248 3.744 1.536 12.48 1.536H77.4V66.456c0-8.736-.288-11.328-1.536-12.48-.768-.864-1.824-1.536-2.304-1.536-2.112 0-3.84 3.264-3.84 7.488v4.416l-9.984-9.792c-5.472-5.376-10.368-9.792-10.944-9.792-.576 0-1.728.672-2.496 1.536Z"/>
</symbol>
<symbol id="electricity" viewBox="0 0 46 94">
  <path d="M.666 46.745 22.26.577A1 1 0 0 1 23.167 0h14.237a1 1 0 0 1 .91 1.415L22.53 36.01h21.776a1 1 0 0 1 .875 1.483l-17.488 31.72h7.61c.93 0 1.356 1.16.648 1.762L10.127 92.971a1 1 0 0 1-1.615-.505L2.68 70.47a1 1 0 0 1 .967-1.256h9.496l10.796-21.045H1.572a1 1 0 0 1-.906-1.423Z"/>
</symbol>
<symbol id="forest" viewBox="0 0 96 96">
  <path d="M66.048 1.729c-2.976 3.456-14.4 25.248-13.824 26.592.576 1.536 5.568 3.072 12.576 3.936 4.8.576 16.224-1.536 18.144-3.456.768-.768-12.96-27.168-14.784-28.32-.384-.192-1.344.288-2.112 1.248ZM23.136 5.28c-1.728.767-4.32 2.495-5.76 3.84-1.344 1.343-4.128 3.84-6.048 5.663C9.024 16.8 7.68 18.911 7.68 20.351c0 1.248-.864 3.936-1.92 6.048-1.344 2.592-1.92 5.664-1.92 9.984 0 4.416-.576 7.488-2.016 10.464C0 50.495-.096 51.551.864 54.815c.672 2.112 2.304 4.608 3.936 5.856 1.632 1.152 2.88 2.976 2.88 4.224 0 4.992 7.488 9.792 13.824 8.736 1.824-.288 3.744.096 4.8.864 2.496 1.728 9.216 1.536 8.544-.288-.288-.672 1.632-4.704 4.32-8.928 4.704-7.392 4.8-7.584 2.976-9.216-2.784-2.496-2.208-5.28 2.976-14.208 4.704-7.968 4.8-8.256 3.36-10.56-1.056-1.632-1.44-3.36-.96-5.28.48-2.4.192-3.168-2.304-4.992-2.016-1.44-2.976-2.976-2.976-4.608 0-3.168-3.072-8.16-6.144-10.176-3.456-2.304-9.12-2.688-12.96-.96Z"/>
  <path d="M49.728 42.624c-2.592 4.416-4.608 8.64-4.608 9.504 0 1.824 4.896 4.128 11.616 5.568 11.136 2.4 31.392-.768 33.12-5.184.192-.672-1.728-4.992-4.416-9.504l-4.8-8.256-3.552.96c-3.552.96-18.624.576-21.408-.48-1.056-.48-2.688 1.536-5.952 7.392Zm-5.952 23.713c-2.4 3.648-4.416 7.104-4.416 7.584 0 1.536 7.2 4.416 14.208 5.76 9.216 1.824 28.992.768 35.904-1.824 3.072-1.152 5.76-2.592 6.144-3.072.288-.48-1.344-3.936-3.648-7.68-3.936-6.432-4.32-6.72-7.008-6.144-12.672 2.688-23.904 2.688-32.832 0l-4.032-1.248-4.32 6.624ZM24.096 83.04c-.576 2.304-2.208 4.992-3.936 6.624-1.632 1.44-2.88 3.36-2.688 4.224.288 1.44 2.016 1.632 13.056 1.92 14.4.288 15.072-.192 9.792-6.24-1.632-1.824-3.168-4.608-3.552-6.144-.576-2.88-1.44-3.36-8.16-3.936-3.36-.384-3.552-.192-4.512 3.552Zm38.592 5.185c-.768 2.208-1.728 2.88-4.224 3.168-2.496.192-3.264.767-3.264 2.207 0 1.825.768 1.92 12.384 2.209 7.296.096 12.768-.096 13.344-.672 1.344-1.344-.768-3.745-3.456-4.129-1.536-.191-2.208-1.055-2.4-2.975-.288-2.496-.576-2.593-5.76-2.593s-5.568.192-6.624 2.785Z"/>
</symbol>
<symbol id="grass" viewBox="0 0 92 93">
  <path d="M7.904 2.28c-.384.864 1.344 3.552 4.416 6.912 6.432 7.2 13.728 22.08 16.896 34.368 1.344 5.28 3.936 12.672 5.76 16.416 4.032 8.448 7.104 20.064 7.104 27.456V93h3.648c5.952 0 6.24-.576 5.472-10.656C49.376 55.848 43.328 36.456 32 20.52c-5.088-7.2-13.248-14.976-18.528-17.664-4.704-2.4-4.896-2.4-5.568-.576Zm63.264 15.264c-2.208.768-5.472 2.208-7.296 3.36-4.512 2.784-11.616 10.56-14.112 15.456l-2.112 4.032 2.496 8.832c1.44 4.8 2.496 9.408 2.592 10.176 0 .768.864-1.824 1.92-5.76C58.4 39.624 65.312 28.488 74.144 22.152c6.528-4.704 4.992-7.104-2.976-4.608Z"/>
  <path d="M.224 34.92c-.384.96.384 2.689 2.208 4.609C13.76 51.72 19.52 65.353 20.672 82.92c.288 4.8 1.056 8.928 1.632 9.312 1.44 1.056 13.248.96 14.784-.096.96-.576 1.152-2.208.672-6.432-2.016-16.992-8.448-30.528-19.872-41.28C9.152 36.169 1.28 31.945.224 34.92Zm85.344.575c-2.208 1.056-7.2 5.28-11.04 9.313-10.56 11.04-15.936 22.56-18.144 38.304-.96 6.816-.96 8.256.192 9.023 1.632.96 13.344 1.152 14.88.096.576-.383 1.344-4.8 1.632-9.791 1.056-15.745 6.048-29.472 14.784-40.608 2.496-3.169 4.032-6.145 3.744-6.913-.672-1.823-1.248-1.823-6.048.577Z"/>
</symbol>
<symbol id="guarantee" viewBox="0 0 66 88">
  <path d="M29.4 3.1c-3 2.9-3.3 3-7.4 1.9-4.8-1.3-5.3-1-6.9 4.2-1 3-1.9 3.9-4.9 4.9C5 15.7 4.7 16.2 6 21c1.1 4.1 1 4.4-2.1 7.6L.6 32l3.3 3.4C7 38.6 7.1 38.9 6 43c-1.3 4.8-1 5.3 4.2 6.9 3 1 3.9 1.9 4.9 4.9 1.6 5.2 2.1 5.5 6.9 4.2 4.1-1.1 4.4-1 7.6 2.1l3.4 3.3 3.4-3.3c3.2-3.1 3.5-3.2 7.6-2.1 4.8 1.3 5.3 1 6.9-4.2 1-3 1.9-3.9 4.9-4.9 5.2-1.6 5.5-2.1 4.2-6.9-1.1-4.1-1-4.4 2.1-7.6l3.3-3.4-3.3-3.4C59 25.4 58.9 25.1 60 21c1.3-4.8 1-5.3-4.2-6.9-3-1-3.9-1.9-4.9-4.9C49.3 4 48.8 3.7 44 5c-4.1 1.1-4.4 1-7.4-1.9C34.8 1.4 33.2 0 32.9 0c-.2 0-1.8 1.4-3.5 3.1Z"/>
  <path d="m19.3 64.3-4.3 1v10.2c0 13.8.7 14.3 10 8.1 3.8-2.5 7.4-4.6 8-4.6.6 0 4.2 2.1 8 4.6 9.3 6.2 10 5.7 10-8.1V65.3l-4.7-1c-4.6-1.1-4.8-1-8.5 2.3-2.1 1.9-4.3 3.4-4.8 3.4s-2.7-1.6-4.9-3.5c-2.1-1.9-4-3.4-4.2-3.4-.2.1-2.3.6-4.6 1.2Z"/>
</symbol>
<symbol id="home" viewBox="0 0 94 89">
  <path d="M47 .018c-.418 0-.834.132-1.189.4L1.651 34.886a1.938 1.938 0 0 0-.326 2.704 1.939 1.939 0 0 0 2.704.326l2.651-2.07V86.32c0 1.056.864 1.92 1.92 1.92h26.88V53.68h23.04v34.56H85.4c1.056 0 1.92-.864 1.92-1.92V35.845l2.651 2.07c.365.269.767.405 1.189.405.576 0 1.131-.251 1.515-.731.653-.845.5-2.051-.326-2.704L48.189.42A1.961 1.961 0 0 0 47 .018ZM66.2 7.6v2.018l11.52 8.985V7.6H66.2Z"/>
</symbol>
<symbol id="keys" viewBox="0 0 74 96">
  <path d="M1.816 1.536C.568 2.784.28 5.856.28 20.16c0 19.296.288 20.16 6.624 20.16h3.552l-.384-5.568c-.48-7.296 1.44-11.232 9.792-19.2C25.432 10.272 26.488 9.6 30.04 9.6c3.552 0 4.608.672 10.176 5.952C47.128 22.176 50.2 27.168 50.2 31.68c0 1.536.384 2.88.864 2.88s2.304 1.152 3.936 2.592c2.496 2.016 3.168 2.304 3.936 1.152.48-.768.864-9.024.864-18.336 0-14.112-.288-17.184-1.536-18.432C57.016.192 53.08 0 30.04 0S3.064.192 1.816 1.536Z"/>
  <path d="M25.72 15.84c-1.344 1.249-2.4 3.169-2.4 4.32 0 1.057 1.056 3.073 2.4 4.32 1.248 1.345 3.168 2.4 4.32 2.4 2.592 0 6.72-4.127 6.72-6.72 0-1.151-1.056-3.071-2.4-4.32-1.248-1.343-3.168-2.4-4.32-2.4-1.056 0-3.072 1.057-4.32 2.4Z"/>
  <path d="M16.696 25.056c-2.688 4.416-3.264 7.776-2.016 12.384 1.344 5.088 5.28 9.312 10.08 10.944 4.032 1.44 5.28 3.552 3.36 5.856-1.92 2.4-3.744 1.632-8.928-3.36-5.472-5.376-6.72-5.184-8.352 1.056-1.728 6.336 1.92 15.168 6.72 16.704 1.728.576 1.92 1.536 1.92 11.904 0 10.56.096 11.424 2.208 13.344 2.88 2.688 4.608 2.688 7.2-.096 2.496-2.688 2.688-4.224.48-6.624-1.44-1.632-1.44-1.824.192-3.744 1.536-1.536 1.632-2.4.768-4.704-1.44-3.744.288-8.832 3.648-10.848 5.952-3.36 7.872-13.632 3.936-20.064-2.976-4.8-9.408-7.872-14.592-7.008-3.072.48-3.936.384-4.416-.96-.864-2.304 1.152-3.36 6.624-3.36 2.688 0 6.144-.768 8.352-1.92 2.112-1.056 5.664-1.92 8.064-1.92h4.32l-.864-2.976c-.48-1.632-1.632-4.128-2.496-5.376l-1.536-2.4-1.728 2.88c-2.4 3.936-5.568 5.952-9.6 5.952s-7.2-2.016-9.6-6.048l-1.824-2.88-1.92 3.264Z"/>
  <path d="m37.528 37.536-2.688 1.056 2.976 2.4C43.96 46.176 46.168 55.49 43 63.072c-.768 1.92-1.248 3.648-.96 3.936.288.288 1.92.097 3.744-.48 3.264-.96 3.36-.96 11.712 7.488 6.336 6.337 9.12 8.544 10.944 8.544 3.168 0 4.8-1.632 4.8-4.8 0-2.88-1.632-4.8-4.032-4.8-1.056 0-1.728-.671-1.728-1.727 0-2.209-3.84-5.953-6.048-5.953-.96 0-1.632-.767-1.632-1.727 0-1.056-.768-2.496-1.824-3.456-1.536-1.345-1.632-2.113-.768-5.857.864-3.744.672-4.8-1.344-8.832-1.344-2.495-3.648-5.28-5.184-6.24-3.744-2.111-9.888-2.88-13.152-1.632Z"/>
</symbol>
<symbol id="kindergarten" viewBox="0 0 73 80">
  <rect width="73" height="16" y="64" rx="8"/>
  <rect width="56" height="16" x="8" y="44" rx="8"/>
  <rect width="40" height="16" x="16" y="24" rx="8"/>
  <circle cx="36" cy="10" r="10"/>
</symbol>
<symbol id="location" viewBox="0 0 62 93">
  <path d="M23.32 1.169C11.32 4.529 2.296 14.992.76 27.28c-.864 6.432 1.632 18.048 6.048 28.224 3.36 7.873 15.552 27.169 21.216 33.697L31 92.56l2.88-3.36c5.472-6.336 14.304-19.776 18.528-28.416 9.216-18.336 11.232-32.448 6.144-42.72C55.48 11.728 48.952 5.393 43 2.705 37.528.305 28.792-.367 23.32 1.169ZM36.76 22.48c1.536.864 3.456 2.785 4.32 4.32 4.128 8.064-1.248 17.28-10.08 17.28S16.792 34.865 20.92 26.8c2.784-5.28 10.08-7.296 15.84-4.32Z"/>
</symbol>
<symbol id="map" viewBox="0 0 90 89">
  <path d="M39.72.705C31.944 2.72 26.472 7.04 23.112 13.76c-4.32 8.832-3.264 18.432 3.744 32.736 4.512 9.216 16.8 28.224 18.24 28.224 1.344 0 13.344-18.624 17.952-27.936 4.8-9.888 7.296-19.776 6.336-25.248-.768-4.896-4.32-11.904-7.296-14.592-5.472-5.088-15.84-7.968-22.368-6.24ZM50.28 19.52c4.8 4.704 1.44 12.96-5.28 12.96-3.936 0-7.68-3.744-7.68-7.68 0-3.936 3.744-7.68 7.68-7.68 1.824 0 3.84.864 5.28 2.4Z"/>
  <path d="M10.536 59.552C7.08 68.96.84 86.624.84 87.296c0 .48 19.68.864 44.16.864 24.48 0 44.16-.384 44.16-.864 0-.384-2.304-7.2-5.184-15.072L78.888 57.92l-7.104-.288c-6.24-.192-7.2 0-8.352 1.728-1.152 1.824-.96 1.92 6.048 1.92 3.936 0 7.2.096 7.2.288 0 .192 1.728 4.992 3.84 10.848 2.112 5.76 3.84 10.752 3.84 11.136 0 .48-17.664.768-39.36.768-21.696 0-39.36-.288-39.36-.768 0-.384 1.728-5.376 3.84-11.136 2.112-5.856 3.84-10.656 3.84-10.848 0-.192 3.264-.288 7.2-.288 7.008 0 7.2-.096 6.048-1.92-1.056-1.632-2.304-1.92-8.256-1.92-6.336 0-7.008.192-7.776 2.112Z"/>
</symbol>
<symbol id="news" viewBox="0 0 96 74">
  <path d="M8.16 1.671c-.288.672-.384 15.264-.288 32.448l.288 31.2 8.16.672c4.512.384 13.152 2.016 19.2 3.648 6.048 1.632 11.712 2.976 12.48 2.976.768 0 6.432-1.344 12.48-2.976s14.688-3.264 19.2-3.648l8.16-.672V1l-7.2.288c-8.256.384-18.048 2.208-26.592 5.088L48 8.391l-5.952-2.016C29.184 2.151 9.024-.633 8.16 1.671ZM49.92 26.44c0 4.128-.288 4.8-1.92 4.8s-1.92-.672-1.92-4.8.288-4.8 1.92-4.8 1.92.672 1.92 4.8Zm0 26.88c0 4.128-.288 4.8-1.92 4.8s-1.92-.672-1.92-4.8.288-4.8 1.92-4.8 1.92.672 1.92 4.8Z"/>
  <path d="M.48 9.447C.192 10.12.096 24.615.192 41.8L.48 73l15.84.192c15.168.096 15.648 0 10.56-1.248-2.88-.672-9.312-1.536-14.112-1.92l-8.928-.672V38.823C3.84 11.943 3.648 8.2 2.4 8.2c-.864 0-1.728.576-1.92 1.248Zm91.68 29.28v30.624l-8.832.672c-4.896.384-11.328 1.248-14.208 1.92-5.088 1.248-4.608 1.344 10.56 1.248L95.52 73V40.84c0-29.856-.096-32.16-1.632-32.448-1.632-.288-1.728 1.632-1.728 30.336Z"/>
</symbol>
<symbol id="percent" viewBox="0 0 80 80">
  <path stroke="#556541" stroke-linecap="round" stroke-width="7" d="M59.359 8.669 17.226 71.181"/>
  <circle cx="17.143" cy="17.143" r="13.643" stroke="#556541" stroke-width="7"/>
  <circle cx="62.857" cy="62.858" r="13.643" stroke="#556541" stroke-width="7"/>
</symbol>
<symbol id="phone" viewBox="0 0 84 85">
  <path d="M9.168 4.888C-.432 12.664-1.2 15.064 2.256 25.912 6.48 39.16 27.6 63.16 46.128 75.832c6.72 4.512 12 7.008 18.24 8.448 5.664 1.248 8.352 0 14.112-6.432 4.416-5.088 6.048-8.352 5.28-10.752-.288-.864-4.992-4.512-10.464-8.064-10.944-7.2-11.04-7.2-18.528-2.976l-4.032 2.304-6.72-5.76c-3.648-3.168-9.024-8.544-12-12l-5.376-6.336 2.304-4.032c4.224-7.392 4.224-7.584-2.496-17.664-3.264-5.088-6.624-9.888-7.296-10.56-2.208-2.112-4.704-1.44-9.984 2.88Z"/>
</symbol>
<symbol id="play" viewBox="0 0 17 24">
  <path d="M15.903 11.194a1 1 0 0 1 0 1.612L2.093 22.954A1 1 0 0 1 .5 22.15V1.85a1 1 0 0 1 1.592-.805l13.811 10.148Z"/>
</symbol>
<symbol id="plus" viewBox="0 0 92 91">
  <path d="M50 0h-8v41.255H.745v7.999H42v41.255h8V49.254h41.255v-8H50V0Z"/>
</symbol>
<symbol id="share" viewBox="0 0 78 78">
  <path d="M64.6.6c-7.07 0-12.8 5.73-12.8 12.8.006.9.106 1.796.3 2.675l-29.062 14.53A12.8 12.8 0 0 0 13.4 26.2C6.33 26.2.6 31.93.6 39c0 7.069 5.73 12.8 12.8 12.8a12.8 12.8 0 0 0 9.644-4.4l29.044 14.525A12.79 12.79 0 0 0 51.8 64.6c0 7.069 5.73 12.8 12.8 12.8s12.8-5.731 12.8-12.8c0-7.07-5.73-12.8-12.8-12.8a12.8 12.8 0 0 0-9.644 4.4L25.913 41.675c.19-.88.285-1.776.287-2.675a12.804 12.804 0 0 0-.3-2.67L54.963 21.8a12.8 12.8 0 0 0 9.637 4.4c7.07 0 12.8-5.731 12.8-12.8C77.4 6.33 71.67.6 64.6.6Z"/>
</symbol>
<symbol id="size" viewBox="0 0 78 78">
  <path d="M45.336 2.136c-1.728 1.728-1.824 2.208-.576 4.224.672 1.056 3.36 1.536 10.08 1.92l9.12.48L36.12 36.6 8.28 64.44v-8.832c0-6.72-.384-9.12-1.536-10.272-1.824-1.92-2.784-1.92-4.608 0C.888 46.584.6 49.464.6 62.136V77.4h15.264c12.672 0 15.552-.288 16.8-1.536 1.92-1.824 1.92-2.784 0-4.608-1.152-1.152-3.552-1.536-10.272-1.536H13.56L41.4 41.88l27.84-27.84.48 9.12c.384 6.72.864 9.408 1.92 10.08 2.016 1.248 2.496 1.152 4.224-.576 1.248-1.248 1.536-4.128 1.536-16.8V.6H62.136c-12.672 0-15.552.288-16.8 1.536Z"/>
</symbol>
<symbol id="telegram" viewBox="0 0 86 78">
  <path d="M83.583 1.58c-1.44-1.222-3.702-1.397-6.04-.458h-.004c-2.46.987-69.621 29.795-72.355 30.972-.498.173-4.84 1.793-4.393 5.403.4 3.254 3.89 4.602 4.316 4.757l17.075 5.847c1.132 3.77 5.308 17.683 6.232 20.655.576 1.853 1.515 4.287 3.16 4.789 1.444.556 2.88.048 3.81-.682l10.438-9.682 16.852 13.142.402.24c1.144.507 2.24.76 3.287.76a6.07 6.07 0 0 0 2.325-.455c2.525-1.037 3.534-3.442 3.64-3.715L84.916 7.725c.768-3.494-.3-5.272-1.333-6.146ZM37.24 50.44 31.48 65.8l-5.76-19.2 44.16-32.64-32.64 36.48Z"/>
</symbol>
<symbol id="train" viewBox="0 0 70 96">
  <path d="M20.792 1.536c-1.152.768-2.112 2.016-2.112 2.688 0 .768-1.632 1.536-4.224 1.92-5.184.768-9.024 3.648-10.752 7.872-1.728 4.032-1.92 59.136-.288 63.456.48 1.44 2.112 3.84 3.456 5.28l2.496 2.592L6.2 88.032c-1.728 1.44-3.744 3.072-4.416 3.456C.344 92.352-.04 96 1.208 96c.384 0 3.264-2.208 6.432-4.8l5.664-4.8h43.392l5.664 4.8c3.168 2.592 6.048 4.8 6.432 4.8 1.248 0 .864-3.648-.576-4.512-.672-.384-2.688-2.016-4.416-3.456l-3.168-2.688 2.496-2.592c1.344-1.44 2.976-3.84 3.456-5.28 1.632-4.32 1.44-59.424-.288-63.456-1.728-4.224-5.568-7.104-10.656-7.776-2.88-.48-4.32-1.248-4.608-2.496-.288-.96-1.632-2.304-2.976-2.88-3.072-1.44-7.2.096-7.968 2.976-.384 1.632-1.344 1.92-5.184 1.92-3.456 0-4.704-.384-4.704-1.344C30.2 2.784 26.552 0 24.44 0c-.864 0-2.496.672-3.648 1.536ZM26.84 6.72c0 1.728-.576 2.496-2.208 2.688-2.304.384-3.648-1.728-2.688-4.224.288-.864 1.44-1.344 2.688-1.152 1.632.192 2.208.96 2.208 2.688Zm21.12 0c0 1.728-.576 2.496-2.208 2.688-2.304.384-3.648-1.728-2.688-4.224.288-.864 1.44-1.344 2.688-1.152 1.632.192 2.208.96 2.208 2.688Zm.48 15.36v2.88H21.56V19.2h26.88v2.88Zm8.448 7.872c1.536 1.536 1.536 17.28 0 18.816-1.632 1.632-42.144 1.632-43.776 0-1.536-1.536-1.536-17.28 0-18.816 1.632-1.632 42.144-1.632 43.776 0Zm-35.136 35.04c2.112 1.92 2.208 5.856.096 8.16-3.264 3.648-9.888 1.056-9.888-3.84 0-5.184 5.952-7.776 9.792-4.32Zm34.56 0c3.648 3.264 1.056 9.888-3.84 9.888-5.184 0-7.776-5.952-4.32-9.792 1.92-2.112 5.856-2.208 8.16-.096Z"/>
</symbol>
<symbol id="tree" viewBox="0 0 92 93">
  <path d="M39.76.591C38.704.88 37.168 1.647 36.4 2.32c-.768.672-3.168 1.44-5.28 1.728-2.784.48-4.704 1.536-6.816 4.032-2.4 2.688-3.648 3.36-6.624 3.36-2.784 0-4.224.672-6.816 3.264C9.04 16.527 7.6 18.927 7.6 20.175c0 1.536-.96 2.88-2.784 3.936-5.952 3.36-5.472 13.248.864 16.896 1.536.864 2.88 2.112 2.88 2.784 0 .672-1.632 2.784-3.744 4.8C2.8 50.703.88 53.295.496 54.447-1.136 59.343 4.144 67.12 8.944 67.12c1.152 0 3.168 1.44 4.608 3.264 3.456 4.32 7.296 5.184 12.576 2.688 4.32-2.016 10.08-3.264 14.304-3.168 1.344.096 3.648-.288 4.992-.864 1.536-.576 2.592-.576 2.976 0 .864 1.44 7.008 1.152 9.408-.384 1.152-.672 3.552-1.344 5.28-1.344 1.632 0 3.936-.384 4.992-.672 1.056-.288 1.92-.288 1.92.192 0 1.536 5.568 4.128 8.64 4.128 2.208 0 4.032-.96 6.336-3.264C88.624 64.047 89.2 60.303 86.8 55.6c-1.344-2.496-1.248-2.784.864-4.224 5.664-3.648 5.184-13.44-.768-16.992-1.728-.96-3.648-2.88-4.32-4.128-.672-1.248-2.208-2.784-3.36-3.36-1.632-.864-2.016-2.016-2.016-5.472 0-3.744-.48-4.8-3.264-7.296-2.88-2.592-3.744-2.88-7.584-2.4-3.36.384-4.608.096-6.048-1.344-1.056-1.056-3.072-2.112-4.608-2.4-1.536-.384-3.168-1.536-3.744-2.688-.576-1.248-2.496-2.88-4.32-3.744C44.176-.08 43.216-.177 39.76.591Zm-1.44 76.801c0 5.184-1.056 6.24-7.296 7.488-5.664 1.152-7.872 2.88-6.816 5.664.576 1.344 3.072 1.536 21.696 1.536 17.568 0 21.12-.192 21.6-1.44.768-2.112-2.016-4.32-5.664-4.32-4.416 0-6.24-2.112-6.24-7.104v-4.128l-4.416-.672c-2.496-.288-6.336-.576-8.64-.576H38.32v3.552Z"/>
</symbol>
<symbol id="water" viewBox="0 0 96 77">
  <path d="M8.832 4.44C6.72 6.554 4.32 8.28 3.456 8.28c-2.208 0-3.84 3.649-2.4 5.377 1.536 1.92 5.376 1.632 9.024-.576l3.168-1.92 3.648 2.112c4.704 2.784 11.328 2.784 16.032 0l3.552-2.016 3.552 2.016c2.208 1.344 5.088 2.112 7.968 2.112s5.76-.768 7.968-2.112l3.552-2.016 3.552 2.016c4.704 2.784 11.328 2.784 16.032 0l3.648-2.112 3.168 1.92c4.128 2.592 8.832 2.592 9.6 0 .672-2.208-.96-4.8-3.072-4.8-.768 0-3.168-1.728-5.28-3.84C84.96 2.329 82.944.6 82.56.6c-.384 0-2.4 1.728-4.608 3.84-2.88 2.88-4.704 3.84-6.912 3.84s-4.032-.96-6.912-3.84C61.92 2.329 59.904.6 59.52.6c-.384 0-2.4 1.728-4.608 3.84-2.88 2.88-4.704 3.84-6.912 3.84s-4.032-.96-6.912-3.84C38.88 2.329 36.864.6 36.48.6c-.384 0-2.4 1.728-4.608 3.84-2.88 2.88-4.704 3.84-6.912 3.84s-4.032-.96-6.912-3.84C15.84 2.329 13.824.6 13.44.6c-.384 0-2.4 1.728-4.608 3.84Zm0 30.72C6.72 37.272 4.32 39 3.456 39c-2.208 0-3.84 3.648-2.4 5.376 1.536 1.92 5.376 1.632 9.024-.576l3.168-1.92 3.648 2.112c4.704 2.784 11.328 2.784 16.032 0l3.552-2.016 3.552 2.016c4.608 2.784 11.328 2.784 15.936 0l3.552-2.016 3.552 2.016c4.704 2.784 11.328 2.784 16.032 0l3.648-2.112 3.168 1.92c4.128 2.592 8.832 2.592 9.6 0 .672-2.208-.96-4.8-3.072-4.8-.768 0-3.168-1.728-5.28-3.84-2.208-2.112-4.224-3.84-4.608-3.84-.384 0-2.4 1.728-4.608 3.84-2.88 2.88-4.704 3.84-6.912 3.84s-4.032-.96-6.912-3.84c-2.208-2.112-4.224-3.84-4.608-3.84-.384 0-2.4 1.728-4.608 3.84C52.032 38.04 50.208 39 48 39s-4.032-.96-6.912-3.84c-2.208-2.112-4.224-3.84-4.608-3.84-.384 0-2.4 1.728-4.608 3.84-2.88 2.88-4.704 3.84-6.912 3.84s-4.032-.96-6.912-3.84c-2.208-2.112-4.224-3.84-4.608-3.84-.384 0-2.4 1.728-4.608 3.84Zm0 30.72c-2.112 2.113-4.512 3.84-5.376 3.84-2.208 0-3.84 3.649-2.4 5.377 1.536 1.92 5.376 1.632 9.024-.576l3.168-1.92 3.648 2.112c4.704 2.784 11.328 2.784 16.032 0l3.552-2.016 3.552 2.016c4.608 2.784 11.328 2.784 15.936 0l3.552-2.016 3.552 2.016c4.704 2.784 11.328 2.784 16.032 0l3.648-2.112 3.168 1.92c4.128 2.592 8.832 2.592 9.6 0 .672-2.208-.96-4.8-3.072-4.8-.768 0-3.168-1.728-5.28-3.84-2.208-2.112-4.224-3.84-4.608-3.84-.384 0-2.4 1.728-4.608 3.84-5.28 5.184-8.544 5.184-13.824 0-2.208-2.112-4.224-3.84-4.608-3.84-.384 0-2.4 1.728-4.608 3.84-2.88 2.88-4.704 3.84-6.912 3.84s-4.032-.96-6.912-3.84c-2.208-2.112-4.224-3.84-4.608-3.84-.384 0-2.4 1.728-4.608 3.84-2.88 2.88-4.704 3.84-6.912 3.84s-4.032-.96-6.912-3.84c-2.208-2.112-4.224-3.84-4.608-3.84-.384 0-2.4 1.728-4.608 3.84Z"/>
</symbol>
<symbol id="whatsapp" viewBox="0 0 90 90">
  <path d="M45 .84C20.65.84.84 20.65.84 45c0 7.603 1.964 15.08 5.689 21.677L.91 86.72a1.918 1.918 0 0 0 1.85 2.44c.153 0 .309-.02.46-.056l20.921-5.182A44.188 44.188 0 0 0 45 89.16c24.35 0 44.16-19.81 44.16-44.16C89.16 20.65 69.35.84 45 .84Zm22.214 59.743c-.944 2.615-5.476 5.001-7.653 5.322-1.954.286-4.427.409-7.142-.444-1.646-.518-3.758-1.206-6.463-2.36-11.372-4.85-18.799-16.156-19.367-16.903-.566-.747-4.63-6.07-4.63-11.578 0-5.508 2.929-8.217 3.97-9.339 1.04-1.12 2.267-1.401 3.024-1.401.756 0 1.51.01 2.173.04.697.035 1.632-.263 2.552 1.922.944 2.243 3.212 7.751 3.492 8.314.284.56.472 1.215.096 1.962-.376.747-.564 1.213-1.133 1.868-.568.655-1.19 1.46-1.7 1.962-.57.559-1.159 1.164-.498 2.285.66 1.121 2.936 4.787 6.307 7.755 4.33 3.813 7.983 4.996 9.116 5.556 1.133.561 1.796.467 2.456-.28.66-.749 2.834-3.27 3.588-4.389.755-1.12 1.511-.935 2.552-.56 1.04.372 6.614 3.08 7.747 3.64s1.89.84 2.174 1.307c.284.465.284 2.707-.66 5.32Z"/>
</symbol>
<symbol id="youtube" viewBox="0 0 84 62">
  <path d="M81.205 10.84c-.765-4.223-4.41-7.298-8.64-8.258C66.235 1.239 54.52.279 41.845.279c-12.668 0-24.57.96-30.907 2.303-4.223.96-7.875 3.84-8.64 8.257C1.525 15.64.76 22.36.76 31s.765 15.36 1.725 20.16c.773 4.223 4.418 7.298 8.64 8.258 6.72 1.342 18.24 2.302 30.915 2.302s24.195-.96 30.915-2.302c4.222-.96 7.868-3.84 8.64-8.258.765-4.8 1.725-11.715 1.92-20.16-.39-8.64-1.35-15.36-2.31-20.16ZM31.48 44.44V17.56L54.903 31 31.48 44.44Z"/>
</symbol>
<symbol id="zen" viewBox="0 0 88 88">
  <path d="M86.036 42.053h.022a1.925 1.925 0 0 0 1.912-2.095C86.042 18.755 69.256 1.963 48.05.032a1.92 1.92 0 0 0-2.095 1.935c.334 28.178 4.052 39.692 40.08 40.086Zm0 3.894c-36.028.393-39.744 11.907-40.078 40.085a1.92 1.92 0 0 0 2.095 1.936C69.257 86.036 86.044 69.246 87.97 48.04a1.918 1.918 0 0 0-.503-1.476c-.37-.4-.887-.597-1.43-.618ZM39.82.04C18.683 2.028 1.95 18.817.032 39.961a1.918 1.918 0 0 0 1.912 2.094h.023c35.91-.413 39.618-11.922 39.956-40.08a1.926 1.926 0 0 0-.62-1.435A1.937 1.937 0 0 0 39.82.041ZM1.965 45.945c-.597-.068-1.065.216-1.432.616-.369.4-.551.935-.503 1.476 1.918 21.145 18.653 37.934 39.79 39.921a1.923 1.923 0 0 0 2.1-1.935c-.337-28.157-4.043-39.666-39.955-40.078Z"/>
</symbol>
</svg>