<svg xmlns="http://www.w3.org/2000/svg" width="96" height="66" fill="currentColor" viewBox="0 0 96 66">
  <path d="M5.952 2.64C.576 5.906 0 8.69 0 31.92c0 19.393.096 20.737 1.92 22.56 1.152 1.153 3.168 1.92 5.088 1.92 2.592 0 3.36.48 4.224 2.785 3.072 8.256 16.704 8.256 19.776 0l1.056-2.784h31.872l1.056 2.784c3.072 8.256 16.704 8.256 19.776.096.768-2.016 1.92-2.88 4.128-3.264 5.76-1.152 6.624-3.168 6.624-16.32-.096-11.424-.096-11.712-4.224-21.696-4.512-11.136-7.392-14.88-12.48-16.32C76.8 1.105 61.152.72 42.24.72 10.752.72 8.928.817 5.952 2.64Zm23.616 8.833c1.536 1.536 1.536 13.44 0 14.976-.672.672-4.224 1.152-9.408 1.152-5.184 0-8.736-.48-9.408-1.152-1.536-1.536-1.536-13.44 0-14.976.672-.672 4.224-1.152 9.408-1.152 5.184 0 8.736.48 9.408 1.152Zm30.72 0c1.536 1.536 1.536 13.44 0 14.976-1.536 1.536-19.2 1.536-20.736 0-.672-.672-1.152-3.84-1.152-7.488 0-3.648.48-6.816 1.152-7.488 1.536-1.536 19.2-1.536 20.736 0Zm27.744 7.392c1.728 4.512 3.168 8.256 3.168 8.448 0 .192-4.416.288-9.888.288-6.432 0-10.272-.384-11.04-1.152-1.536-1.536-1.536-13.44 0-14.976.768-.768 3.552-1.152 7.968-.96l6.624.288 3.168 8.064ZM26.4 49.2c3.168 3.072 3.168 7.488 0 10.56-3.072 3.168-7.488 3.168-10.56 0-1.536-1.44-2.4-3.456-2.4-5.28 0-1.824.864-3.84 2.4-5.28 1.44-1.536 3.456-2.4 5.28-2.4 1.824 0 3.84.864 5.28 2.4Zm53.76 0c4.8 4.704 1.44 12.96-5.28 12.96-3.936 0-7.68-3.744-7.68-7.68 0-3.936 3.744-7.68 7.68-7.68 1.824 0 3.84.864 5.28 2.4Z"/>
</svg>
