<svg xmlns="http://www.w3.org/2000/svg" width="78" height="78" fill="currentColor" viewBox="0 0 78 78">
  <path d="M.6 11.544c0 8.736.288 11.328 1.536 12.48 1.824 1.92 2.784 1.92 4.608 0 .96-.864 1.536-3.168 1.536-5.952v-4.416l9.984 9.792c5.472 5.376 10.368 9.792 10.944 9.792 1.344 0 4.032-2.688 4.032-4.032 0-.576-4.416-5.472-9.792-10.944L13.656 8.28h4.416c2.784 0 5.088-.576 5.952-1.536 1.92-1.824 1.92-2.784 0-4.608C22.872.888 20.28.6 11.544.6H.6v10.944Zm53.376-9.408c-.864.768-1.536 1.824-1.536 2.304 0 2.112 3.264 3.84 7.488 3.84h4.416l-9.792 9.984c-5.376 5.472-9.792 10.368-9.792 10.944 0 1.344 2.688 4.032 4.032 4.032.576 0 5.472-4.416 10.944-9.792l9.984-9.792v4.416c0 4.224 1.728 7.488 3.84 7.488.48 0 1.536-.672 2.304-1.536 1.248-1.152 1.536-3.744 1.536-12.48V.6H66.456c-8.736 0-11.328.288-12.48 1.536ZM18.264 54.552 8.28 64.344v-4.416c0-2.784-.576-5.088-1.536-5.952-1.824-1.92-2.784-1.92-4.608 0C.888 55.128.6 57.72.6 66.456V77.4h10.944c8.736 0 11.328-.288 12.48-1.536.864-.768 1.536-1.824 1.536-2.304 0-2.112-3.264-3.84-7.488-3.84h-4.416l9.792-9.984c5.376-5.472 9.792-10.368 9.792-10.944 0-1.344-2.688-4.032-4.032-4.032-.576 0-5.472 4.416-10.944 9.792Zm28.032-8.256c-.864.768-1.536 1.92-1.536 2.496 0 .576 4.416 5.472 9.792 10.944l9.792 9.984h-4.416c-2.784 0-5.088.576-5.952 1.536-1.92 1.824-1.92 2.784 0 4.608 1.152 1.248 3.744 1.536 12.48 1.536H77.4V66.456c0-8.736-.288-11.328-1.536-12.48-.768-.864-1.824-1.536-2.304-1.536-2.112 0-3.84 3.264-3.84 7.488v4.416l-9.984-9.792c-5.472-5.376-10.368-9.792-10.944-9.792-.576 0-1.728.672-2.496 1.536Z"/>
</svg>
