<svg xmlns="http://www.w3.org/2000/svg" width="96" height="96" fill="currentColor" viewBox="0 0 96 96">
  <path d="M66.048 1.729c-2.976 3.456-14.4 25.248-13.824 26.592.576 1.536 5.568 3.072 12.576 3.936 4.8.576 16.224-1.536 18.144-3.456.768-.768-12.96-27.168-14.784-28.32-.384-.192-1.344.288-2.112 1.248ZM23.136 5.28c-1.728.767-4.32 2.495-5.76 3.84-1.344 1.343-4.128 3.84-6.048 5.663C9.024 16.8 7.68 18.911 7.68 20.351c0 1.248-.864 3.936-1.92 6.048-1.344 2.592-1.92 5.664-1.92 9.984 0 4.416-.576 7.488-2.016 10.464C0 50.495-.096 51.551.864 54.815c.672 2.112 2.304 4.608 3.936 5.856 1.632 1.152 2.88 2.976 2.88 4.224 0 4.992 7.488 9.792 13.824 8.736 1.824-.288 3.744.096 4.8.864 2.496 1.728 9.216 1.536 8.544-.288-.288-.672 1.632-4.704 4.32-8.928 4.704-7.392 4.8-7.584 2.976-9.216-2.784-2.496-2.208-5.28 2.976-14.208 4.704-7.968 4.8-8.256 3.36-10.56-1.056-1.632-1.44-3.36-.96-5.28.48-2.4.192-3.168-2.304-4.992-2.016-1.44-2.976-2.976-2.976-4.608 0-3.168-3.072-8.16-6.144-10.176-3.456-2.304-9.12-2.688-12.96-.96Z"/>
  <path d="M49.728 42.624c-2.592 4.416-4.608 8.64-4.608 9.504 0 1.824 4.896 4.128 11.616 5.568 11.136 2.4 31.392-.768 33.12-5.184.192-.672-1.728-4.992-4.416-9.504l-4.8-8.256-3.552.96c-3.552.96-18.624.576-21.408-.48-1.056-.48-2.688 1.536-5.952 7.392Zm-5.952 23.713c-2.4 3.648-4.416 7.104-4.416 7.584 0 1.536 7.2 4.416 14.208 5.76 9.216 1.824 28.992.768 35.904-1.824 3.072-1.152 5.76-2.592 6.144-3.072.288-.48-1.344-3.936-3.648-7.68-3.936-6.432-4.32-6.72-7.008-6.144-12.672 2.688-23.904 2.688-32.832 0l-4.032-1.248-4.32 6.624ZM24.096 83.04c-.576 2.304-2.208 4.992-3.936 6.624-1.632 1.44-2.88 3.36-2.688 4.224.288 1.44 2.016 1.632 13.056 1.92 14.4.288 15.072-.192 9.792-6.24-1.632-1.824-3.168-4.608-3.552-6.144-.576-2.88-1.44-3.36-8.16-3.936-3.36-.384-3.552-.192-4.512 3.552Zm38.592 5.185c-.768 2.208-1.728 2.88-4.224 3.168-2.496.192-3.264.767-3.264 2.207 0 1.825.768 1.92 12.384 2.209 7.296.096 12.768-.096 13.344-.672 1.344-1.344-.768-3.745-3.456-4.129-1.536-.191-2.208-1.055-2.4-2.975-.288-2.496-.576-2.593-5.76-2.593s-5.568.192-6.624 2.785Z"/>
</svg>
