<svg xmlns="http://www.w3.org/2000/svg" width="92" height="93" fill="currentColor" viewBox="0 0 92 93">
  <path d="M7.904 2.28c-.384.864 1.344 3.552 4.416 6.912 6.432 7.2 13.728 22.08 16.896 34.368 1.344 5.28 3.936 12.672 5.76 16.416 4.032 8.448 7.104 20.064 7.104 27.456V93h3.648c5.952 0 6.24-.576 5.472-10.656C49.376 55.848 43.328 36.456 32 20.52c-5.088-7.2-13.248-14.976-18.528-17.664-4.704-2.4-4.896-2.4-5.568-.576Zm63.264 15.264c-2.208.768-5.472 2.208-7.296 3.36-4.512 2.784-11.616 10.56-14.112 15.456l-2.112 4.032 2.496 8.832c1.44 4.8 2.496 9.408 2.592 10.176 0 .768.864-1.824 1.92-5.76C58.4 39.624 65.312 28.488 74.144 22.152c6.528-4.704 4.992-7.104-2.976-4.608Z"/>
  <path d="M.224 34.92c-.384.96.384 2.689 2.208 4.609C13.76 51.72 19.52 65.353 20.672 82.92c.288 4.8 1.056 8.928 1.632 9.312 1.44 1.056 13.248.96 14.784-.096.96-.576 1.152-2.208.672-6.432-2.016-16.992-8.448-30.528-19.872-41.28C9.152 36.169 1.28 31.945.224 34.92Zm85.344.575c-2.208 1.056-7.2 5.28-11.04 9.313-10.56 11.04-15.936 22.56-18.144 38.304-.96 6.816-.96 8.256.192 9.023 1.632.96 13.344 1.152 14.88.096.576-.383 1.344-4.8 1.632-9.791 1.056-15.745 6.048-29.472 14.784-40.608 2.496-3.169 4.032-6.145 3.744-6.913-.672-1.823-1.248-1.823-6.048.577Z"/>
</svg>
