<svg xmlns="http://www.w3.org/2000/svg" width="66" height="88" fill="currentColor" viewBox="0 0 66 88">
  <path d="M29.4 3.1c-3 2.9-3.3 3-7.4 1.9-4.8-1.3-5.3-1-6.9 4.2-1 3-1.9 3.9-4.9 4.9C5 15.7 4.7 16.2 6 21c1.1 4.1 1 4.4-2.1 7.6L.6 32l3.3 3.4C7 38.6 7.1 38.9 6 43c-1.3 4.8-1 5.3 4.2 6.9 3 1 3.9 1.9 4.9 4.9 1.6 5.2 2.1 5.5 6.9 4.2 4.1-1.1 4.4-1 7.6 2.1l3.4 3.3 3.4-3.3c3.2-3.1 3.5-3.2 7.6-2.1 4.8 1.3 5.3 1 6.9-4.2 1-3 1.9-3.9 4.9-4.9 5.2-1.6 5.5-2.1 4.2-6.9-1.1-4.1-1-4.4 2.1-7.6l3.3-3.4-3.3-3.4C59 25.4 58.9 25.1 60 21c1.3-4.8 1-5.3-4.2-6.9-3-1-3.9-1.9-4.9-4.9C49.3 4 48.8 3.7 44 5c-4.1 1.1-4.4 1-7.4-1.9C34.8 1.4 33.2 0 32.9 0c-.2 0-1.8 1.4-3.5 3.1Z"/>
  <path d="m19.3 64.3-4.3 1v10.2c0 13.8.7 14.3 10 8.1 3.8-2.5 7.4-4.6 8-4.6.6 0 4.2 2.1 8 4.6 9.3 6.2 10 5.7 10-8.1V65.3l-4.7-1c-4.6-1.1-4.8-1-8.5 2.3-2.1 1.9-4.3 3.4-4.8 3.4s-2.7-1.6-4.9-3.5c-2.1-1.9-4-3.4-4.2-3.4-.2.1-2.3.6-4.6 1.2Z"/>
</svg>
