<svg xmlns="http://www.w3.org/2000/svg" width="94" height="89" fill="currentColor" viewBox="0 0 94 89">
  <path d="M47 .018c-.418 0-.834.132-1.189.4L1.651 34.886a1.938 1.938 0 0 0-.326 2.704 1.939 1.939 0 0 0 2.704.326l2.651-2.07V86.32c0 1.056.864 1.92 1.92 1.92h26.88V53.68h23.04v34.56H85.4c1.056 0 1.92-.864 1.92-1.92V35.845l2.651 2.07c.365.269.767.405 1.189.405.576 0 1.131-.251 1.515-.731.653-.845.5-2.051-.326-2.704L48.189.42A1.961 1.961 0 0 0 47 .018ZM66.2 7.6v2.018l11.52 8.985V7.6H66.2Z"/>
</svg>
