<svg xmlns="http://www.w3.org/2000/svg" width="74" height="96" fill="currentColor" viewBox="0 0 74 96">
  <path d="M1.816 1.536C.568 2.784.28 5.856.28 20.16c0 19.296.288 20.16 6.624 20.16h3.552l-.384-5.568c-.48-7.296 1.44-11.232 9.792-19.2C25.432 10.272 26.488 9.6 30.04 9.6c3.552 0 4.608.672 10.176 5.952C47.128 22.176 50.2 27.168 50.2 31.68c0 1.536.384 2.88.864 2.88s2.304 1.152 3.936 2.592c2.496 2.016 3.168 2.304 3.936 1.152.48-.768.864-9.024.864-18.336 0-14.112-.288-17.184-1.536-18.432C57.016.192 53.08 0 30.04 0S3.064.192 1.816 1.536Z"/>
  <path d="M25.72 15.84c-1.344 1.249-2.4 3.169-2.4 4.32 0 1.057 1.056 3.073 2.4 4.32 1.248 1.345 3.168 2.4 4.32 2.4 2.592 0 6.72-4.127 6.72-6.72 0-1.151-1.056-3.071-2.4-4.32-1.248-1.343-3.168-2.4-4.32-2.4-1.056 0-3.072 1.057-4.32 2.4Z"/>
  <path d="M16.696 25.056c-2.688 4.416-3.264 7.776-2.016 12.384 1.344 5.088 5.28 9.312 10.08 10.944 4.032 1.44 5.28 3.552 3.36 5.856-1.92 2.4-3.744 1.632-8.928-3.36-5.472-5.376-6.72-5.184-8.352 1.056-1.728 6.336 1.92 15.168 6.72 16.704 1.728.576 1.92 1.536 1.92 11.904 0 10.56.096 11.424 2.208 13.344 2.88 2.688 4.608 2.688 7.2-.096 2.496-2.688 2.688-4.224.48-6.624-1.44-1.632-1.44-1.824.192-3.744 1.536-1.536 1.632-2.4.768-4.704-1.44-3.744.288-8.832 3.648-10.848 5.952-3.36 7.872-13.632 3.936-20.064-2.976-4.8-9.408-7.872-14.592-7.008-3.072.48-3.936.384-4.416-.96-.864-2.304 1.152-3.36 6.624-3.36 2.688 0 6.144-.768 8.352-1.92 2.112-1.056 5.664-1.92 8.064-1.92h4.32l-.864-2.976c-.48-1.632-1.632-4.128-2.496-5.376l-1.536-2.4-1.728 2.88c-2.4 3.936-5.568 5.952-9.6 5.952s-7.2-2.016-9.6-6.048l-1.824-2.88-1.92 3.264Z"/>
  <path d="m37.528 37.536-2.688 1.056 2.976 2.4C43.96 46.176 46.168 55.49 43 63.072c-.768 1.92-1.248 3.648-.96 3.936.288.288 1.92.097 3.744-.48 3.264-.96 3.36-.96 11.712 7.488 6.336 6.337 9.12 8.544 10.944 8.544 3.168 0 4.8-1.632 4.8-4.8 0-2.88-1.632-4.8-4.032-4.8-1.056 0-1.728-.671-1.728-1.727 0-2.209-3.84-5.953-6.048-5.953-.96 0-1.632-.767-1.632-1.727 0-1.056-.768-2.496-1.824-3.456-1.536-1.345-1.632-2.113-.768-5.857.864-3.744.672-4.8-1.344-8.832-1.344-2.495-3.648-5.28-5.184-6.24-3.744-2.111-9.888-2.88-13.152-1.632Z"/>
</svg>
