<svg xmlns="http://www.w3.org/2000/svg" width="62" height="93" fill="currentColor" viewBox="0 0 62 93">
  <path d="M23.32 1.169C11.32 4.529 2.296 14.992.76 27.28c-.864 6.432 1.632 18.048 6.048 28.224 3.36 7.873 15.552 27.169 21.216 33.697L31 92.56l2.88-3.36c5.472-6.336 14.304-19.776 18.528-28.416 9.216-18.336 11.232-32.448 6.144-42.72C55.48 11.728 48.952 5.393 43 2.705 37.528.305 28.792-.367 23.32 1.169ZM36.76 22.48c1.536.864 3.456 2.785 4.32 4.32 4.128 8.064-1.248 17.28-10.08 17.28S16.792 34.865 20.92 26.8c2.784-5.28 10.08-7.296 15.84-4.32Z"/>
</svg>
