<svg xmlns="http://www.w3.org/2000/svg" width="90" height="89" fill="currentColor" viewBox="0 0 90 89">
  <path d="M39.72.705C31.944 2.72 26.472 7.04 23.112 13.76c-4.32 8.832-3.264 18.432 3.744 32.736 4.512 9.216 16.8 28.224 18.24 28.224 1.344 0 13.344-18.624 17.952-27.936 4.8-9.888 7.296-19.776 6.336-25.248-.768-4.896-4.32-11.904-7.296-14.592-5.472-5.088-15.84-7.968-22.368-6.24ZM50.28 19.52c4.8 4.704 1.44 12.96-5.28 12.96-3.936 0-7.68-3.744-7.68-7.68 0-3.936 3.744-7.68 7.68-7.68 1.824 0 3.84.864 5.28 2.4Z"/>
  <path d="M10.536 59.552C7.08 68.96.84 86.624.84 87.296c0 .48 19.68.864 44.16.864 24.48 0 44.16-.384 44.16-.864 0-.384-2.304-7.2-5.184-15.072L78.888 57.92l-7.104-.288c-6.24-.192-7.2 0-8.352 1.728-1.152 1.824-.96 1.92 6.048 1.92 3.936 0 7.2.096 7.2.288 0 .192 1.728 4.992 3.84 10.848 2.112 5.76 3.84 10.752 3.84 11.136 0 .48-17.664.768-39.36.768-21.696 0-39.36-.288-39.36-.768 0-.384 1.728-5.376 3.84-11.136 2.112-5.856 3.84-10.656 3.84-10.848 0-.192 3.264-.288 7.2-.288 7.008 0 7.2-.096 6.048-1.92-1.056-1.632-2.304-1.92-8.256-1.92-6.336 0-7.008.192-7.776 2.112Z"/>
</svg>
