<svg xmlns="http://www.w3.org/2000/svg" width="96" height="74" fill="currentColor" viewBox="0 0 96 74">
  <path d="M8.16 1.671c-.288.672-.384 15.264-.288 32.448l.288 31.2 8.16.672c4.512.384 13.152 2.016 19.2 3.648 6.048 1.632 11.712 2.976 12.48 2.976.768 0 6.432-1.344 12.48-2.976s14.688-3.264 19.2-3.648l8.16-.672V1l-7.2.288c-8.256.384-18.048 2.208-26.592 5.088L48 8.391l-5.952-2.016C29.184 2.151 9.024-.633 8.16 1.671ZM49.92 26.44c0 4.128-.288 4.8-1.92 4.8s-1.92-.672-1.92-4.8.288-4.8 1.92-4.8 1.92.672 1.92 4.8Zm0 26.88c0 4.128-.288 4.8-1.92 4.8s-1.92-.672-1.92-4.8.288-4.8 1.92-4.8 1.92.672 1.92 4.8Z"/>
  <path d="M.48 9.447C.192 10.12.096 24.615.192 41.8L.48 73l15.84.192c15.168.096 15.648 0 10.56-1.248-2.88-.672-9.312-1.536-14.112-1.92l-8.928-.672V38.823C3.84 11.943 3.648 8.2 2.4 8.2c-.864 0-1.728.576-1.92 1.248Zm91.68 29.28v30.624l-8.832.672c-4.896.384-11.328 1.248-14.208 1.92-5.088 1.248-4.608 1.344 10.56 1.248L95.52 73V40.84c0-29.856-.096-32.16-1.632-32.448-1.632-.288-1.728 1.632-1.728 30.336Z"/>
</svg>
