<svg xmlns="http://www.w3.org/2000/svg" width="84" height="85" fill="currentColor" viewBox="0 0 84 85">
  <path d="M9.168 4.888C-.432 12.664-1.2 15.064 2.256 25.912 6.48 39.16 27.6 63.16 46.128 75.832c6.72 4.512 12 7.008 18.24 8.448 5.664 1.248 8.352 0 14.112-6.432 4.416-5.088 6.048-8.352 5.28-10.752-.288-.864-4.992-4.512-10.464-8.064-10.944-7.2-11.04-7.2-18.528-2.976l-4.032 2.304-6.72-5.76c-3.648-3.168-9.024-8.544-12-12l-5.376-6.336 2.304-4.032c4.224-7.392 4.224-7.584-2.496-17.664-3.264-5.088-6.624-9.888-7.296-10.56-2.208-2.112-4.704-1.44-9.984 2.88Z"/>
</svg>
