<svg xmlns="http://www.w3.org/2000/svg" width="78" height="78" fill="currentColor" viewBox="0 0 78 78">
  <path d="M64.6.6c-7.07 0-12.8 5.73-12.8 12.8.006.9.106 1.796.3 2.675l-29.062 14.53A12.8 12.8 0 0 0 13.4 26.2C6.33 26.2.6 31.93.6 39c0 7.069 5.73 12.8 12.8 12.8a12.8 12.8 0 0 0 9.644-4.4l29.044 14.525A12.79 12.79 0 0 0 51.8 64.6c0 7.069 5.73 12.8 12.8 12.8s12.8-5.731 12.8-12.8c0-7.07-5.73-12.8-12.8-12.8a12.8 12.8 0 0 0-9.644 4.4L25.913 41.675c.19-.88.285-1.776.287-2.675a12.804 12.804 0 0 0-.3-2.67L54.963 21.8a12.8 12.8 0 0 0 9.637 4.4c7.07 0 12.8-5.731 12.8-12.8C77.4 6.33 71.67.6 64.6.6Z"/>
</svg>
