<svg xmlns="http://www.w3.org/2000/svg" width="78" height="78" fill="currentColor" viewBox="0 0 78 78">
  <path d="M45.336 2.136c-1.728 1.728-1.824 2.208-.576 4.224.672 1.056 3.36 1.536 10.08 1.92l9.12.48L36.12 36.6 8.28 64.44v-8.832c0-6.72-.384-9.12-1.536-10.272-1.824-1.92-2.784-1.92-4.608 0C.888 46.584.6 49.464.6 62.136V77.4h15.264c12.672 0 15.552-.288 16.8-1.536 1.92-1.824 1.92-2.784 0-4.608-1.152-1.152-3.552-1.536-10.272-1.536H13.56L41.4 41.88l27.84-27.84.48 9.12c.384 6.72.864 9.408 1.92 10.08 2.016 1.248 2.496 1.152 4.224-.576 1.248-1.248 1.536-4.128 1.536-16.8V.6H62.136c-12.672 0-15.552.288-16.8 1.536Z"/>
</svg>
