<svg xmlns="http://www.w3.org/2000/svg" width="86" height="78" fill="currentColor" viewBox="0 0 86 78">
  <path d="M83.583 1.58c-1.44-1.222-3.702-1.397-6.04-.458h-.004c-2.46.987-69.621 29.795-72.355 30.972-.498.173-4.84 1.793-4.393 5.403.4 3.254 3.89 4.602 4.316 4.757l17.075 5.847c1.132 3.77 5.308 17.683 6.232 20.655.576 1.853 1.515 4.287 3.16 4.789 1.444.556 2.88.048 3.81-.682l10.438-9.682 16.852 13.142.402.24c1.144.507 2.24.76 3.287.76a6.07 6.07 0 0 0 2.325-.455c2.525-1.037 3.534-3.442 3.64-3.715L84.916 7.725c.768-3.494-.3-5.272-1.333-6.146ZM37.24 50.44 31.48 65.8l-5.76-19.2 44.16-32.64-32.64 36.48Z"/>
</svg>
