<svg xmlns="http://www.w3.org/2000/svg" width="70" height="96" fill="currentColor" viewBox="0 0 70 96">
  <path d="M20.792 1.536c-1.152.768-2.112 2.016-2.112 2.688 0 .768-1.632 1.536-4.224 1.92-5.184.768-9.024 3.648-10.752 7.872-1.728 4.032-1.92 59.136-.288 63.456.48 1.44 2.112 3.84 3.456 5.28l2.496 2.592L6.2 88.032c-1.728 1.44-3.744 3.072-4.416 3.456C.344 92.352-.04 96 1.208 96c.384 0 3.264-2.208 6.432-4.8l5.664-4.8h43.392l5.664 4.8c3.168 2.592 6.048 4.8 6.432 4.8 1.248 0 .864-3.648-.576-4.512-.672-.384-2.688-2.016-4.416-3.456l-3.168-2.688 2.496-2.592c1.344-1.44 2.976-3.84 3.456-5.28 1.632-4.32 1.44-59.424-.288-63.456-1.728-4.224-5.568-7.104-10.656-7.776-2.88-.48-4.32-1.248-4.608-2.496-.288-.96-1.632-2.304-2.976-2.88-3.072-1.44-7.2.096-7.968 2.976-.384 1.632-1.344 1.92-5.184 1.92-3.456 0-4.704-.384-4.704-1.344C30.2 2.784 26.552 0 24.44 0c-.864 0-2.496.672-3.648 1.536ZM26.84 6.72c0 1.728-.576 2.496-2.208 2.688-2.304.384-3.648-1.728-2.688-4.224.288-.864 1.44-1.344 2.688-1.152 1.632.192 2.208.96 2.208 2.688Zm21.12 0c0 1.728-.576 2.496-2.208 2.688-2.304.384-3.648-1.728-2.688-4.224.288-.864 1.44-1.344 2.688-1.152 1.632.192 2.208.96 2.208 2.688Zm.48 15.36v2.88H21.56V19.2h26.88v2.88Zm8.448 7.872c1.536 1.536 1.536 17.28 0 18.816-1.632 1.632-42.144 1.632-43.776 0-1.536-1.536-1.536-17.28 0-18.816 1.632-1.632 42.144-1.632 43.776 0Zm-35.136 35.04c2.112 1.92 2.208 5.856.096 8.16-3.264 3.648-9.888 1.056-9.888-3.84 0-5.184 5.952-7.776 9.792-4.32Zm34.56 0c3.648 3.264 1.056 9.888-3.84 9.888-5.184 0-7.776-5.952-4.32-9.792 1.92-2.112 5.856-2.208 8.16-.096Z"/>
</svg>
