<svg xmlns="http://www.w3.org/2000/svg" width="92" height="93" fill="currentColor" viewBox="0 0 92 93">
  <path d="M39.76.591C38.704.88 37.168 1.647 36.4 2.32c-.768.672-3.168 1.44-5.28 1.728-2.784.48-4.704 1.536-6.816 4.032-2.4 2.688-3.648 3.36-6.624 3.36-2.784 0-4.224.672-6.816 3.264C9.04 16.527 7.6 18.927 7.6 20.175c0 1.536-.96 2.88-2.784 3.936-5.952 3.36-5.472 13.248.864 16.896 1.536.864 2.88 2.112 2.88 2.784 0 .672-1.632 2.784-3.744 4.8C2.8 50.703.88 53.295.496 54.447-1.136 59.343 4.144 67.12 8.944 67.12c1.152 0 3.168 1.44 4.608 3.264 3.456 4.32 7.296 5.184 12.576 2.688 4.32-2.016 10.08-3.264 14.304-3.168 1.344.096 3.648-.288 4.992-.864 1.536-.576 2.592-.576 2.976 0 .864 1.44 7.008 1.152 9.408-.384 1.152-.672 3.552-1.344 5.28-1.344 1.632 0 3.936-.384 4.992-.672 1.056-.288 1.92-.288 1.92.192 0 1.536 5.568 4.128 8.64 4.128 2.208 0 4.032-.96 6.336-3.264C88.624 64.047 89.2 60.303 86.8 55.6c-1.344-2.496-1.248-2.784.864-4.224 5.664-3.648 5.184-13.44-.768-16.992-1.728-.96-3.648-2.88-4.32-4.128-.672-1.248-2.208-2.784-3.36-3.36-1.632-.864-2.016-2.016-2.016-5.472 0-3.744-.48-4.8-3.264-7.296-2.88-2.592-3.744-2.88-7.584-2.4-3.36.384-4.608.096-6.048-1.344-1.056-1.056-3.072-2.112-4.608-2.4-1.536-.384-3.168-1.536-3.744-2.688-.576-1.248-2.496-2.88-4.32-3.744C44.176-.08 43.216-.177 39.76.591Zm-1.44 76.801c0 5.184-1.056 6.24-7.296 7.488-5.664 1.152-7.872 2.88-6.816 5.664.576 1.344 3.072 1.536 21.696 1.536 17.568 0 21.12-.192 21.6-1.44.768-2.112-2.016-4.32-5.664-4.32-4.416 0-6.24-2.112-6.24-7.104v-4.128l-4.416-.672c-2.496-.288-6.336-.576-8.64-.576H38.32v3.552Z"/>
</svg>
