<svg xmlns="http://www.w3.org/2000/svg" width="96" height="77" fill="currentColor" viewBox="0 0 96 77">
  <path d="M8.832 4.44C6.72 6.554 4.32 8.28 3.456 8.28c-2.208 0-3.84 3.649-2.4 5.377 1.536 1.92 5.376 1.632 9.024-.576l3.168-1.92 3.648 2.112c4.704 2.784 11.328 2.784 16.032 0l3.552-2.016 3.552 2.016c2.208 1.344 5.088 2.112 7.968 2.112s5.76-.768 7.968-2.112l3.552-2.016 3.552 2.016c4.704 2.784 11.328 2.784 16.032 0l3.648-2.112 3.168 1.92c4.128 2.592 8.832 2.592 9.6 0 .672-2.208-.96-4.8-3.072-4.8-.768 0-3.168-1.728-5.28-3.84C84.96 2.329 82.944.6 82.56.6c-.384 0-2.4 1.728-4.608 3.84-2.88 2.88-4.704 3.84-6.912 3.84s-4.032-.96-6.912-3.84C61.92 2.329 59.904.6 59.52.6c-.384 0-2.4 1.728-4.608 3.84-2.88 2.88-4.704 3.84-6.912 3.84s-4.032-.96-6.912-3.84C38.88 2.329 36.864.6 36.48.6c-.384 0-2.4 1.728-4.608 3.84-2.88 2.88-4.704 3.84-6.912 3.84s-4.032-.96-6.912-3.84C15.84 2.329 13.824.6 13.44.6c-.384 0-2.4 1.728-4.608 3.84Zm0 30.72C6.72 37.272 4.32 39 3.456 39c-2.208 0-3.84 3.648-2.4 5.376 1.536 1.92 5.376 1.632 9.024-.576l3.168-1.92 3.648 2.112c4.704 2.784 11.328 2.784 16.032 0l3.552-2.016 3.552 2.016c4.608 2.784 11.328 2.784 15.936 0l3.552-2.016 3.552 2.016c4.704 2.784 11.328 2.784 16.032 0l3.648-2.112 3.168 1.92c4.128 2.592 8.832 2.592 9.6 0 .672-2.208-.96-4.8-3.072-4.8-.768 0-3.168-1.728-5.28-3.84-2.208-2.112-4.224-3.84-4.608-3.84-.384 0-2.4 1.728-4.608 3.84-2.88 2.88-4.704 3.84-6.912 3.84s-4.032-.96-6.912-3.84c-2.208-2.112-4.224-3.84-4.608-3.84-.384 0-2.4 1.728-4.608 3.84C52.032 38.04 50.208 39 48 39s-4.032-.96-6.912-3.84c-2.208-2.112-4.224-3.84-4.608-3.84-.384 0-2.4 1.728-4.608 3.84-2.88 2.88-4.704 3.84-6.912 3.84s-4.032-.96-6.912-3.84c-2.208-2.112-4.224-3.84-4.608-3.84-.384 0-2.4 1.728-4.608 3.84Zm0 30.72c-2.112 2.113-4.512 3.84-5.376 3.84-2.208 0-3.84 3.649-2.4 5.377 1.536 1.92 5.376 1.632 9.024-.576l3.168-1.92 3.648 2.112c4.704 2.784 11.328 2.784 16.032 0l3.552-2.016 3.552 2.016c4.608 2.784 11.328 2.784 15.936 0l3.552-2.016 3.552 2.016c4.704 2.784 11.328 2.784 16.032 0l3.648-2.112 3.168 1.92c4.128 2.592 8.832 2.592 9.6 0 .672-2.208-.96-4.8-3.072-4.8-.768 0-3.168-1.728-5.28-3.84-2.208-2.112-4.224-3.84-4.608-3.84-.384 0-2.4 1.728-4.608 3.84-5.28 5.184-8.544 5.184-13.824 0-2.208-2.112-4.224-3.84-4.608-3.84-.384 0-2.4 1.728-4.608 3.84-2.88 2.88-4.704 3.84-6.912 3.84s-4.032-.96-6.912-3.84c-2.208-2.112-4.224-3.84-4.608-3.84-.384 0-2.4 1.728-4.608 3.84-2.88 2.88-4.704 3.84-6.912 3.84s-4.032-.96-6.912-3.84c-2.208-2.112-4.224-3.84-4.608-3.84-.384 0-2.4 1.728-4.608 3.84Z"/>
</svg>
