<svg xmlns="http://www.w3.org/2000/svg" width="90" height="90" fill="currentColor" viewBox="0 0 90 90">
  <path d="M45 .84C20.65.84.84 20.65.84 45c0 7.603 1.964 15.08 5.689 21.677L.91 86.72a1.918 1.918 0 0 0 1.85 2.44c.153 0 .309-.02.46-.056l20.921-5.182A44.188 44.188 0 0 0 45 89.16c24.35 0 44.16-19.81 44.16-44.16C89.16 20.65 69.35.84 45 .84Zm22.214 59.743c-.944 2.615-5.476 5.001-7.653 5.322-1.954.286-4.427.409-7.142-.444-1.646-.518-3.758-1.206-6.463-2.36-11.372-4.85-18.799-16.156-19.367-16.903-.566-.747-4.63-6.07-4.63-11.578 0-5.508 2.929-8.217 3.97-9.339 1.04-1.12 2.267-1.401 3.024-1.401.756 0 1.51.01 2.173.04.697.035 1.632-.263 2.552 1.922.944 2.243 3.212 7.751 3.492 8.314.284.56.472 1.215.096 1.962-.376.747-.564 1.213-1.133 1.868-.568.655-1.19 1.46-1.7 1.962-.57.559-1.159 1.164-.498 2.285.66 1.121 2.936 4.787 6.307 7.755 4.33 3.813 7.983 4.996 9.116 5.556 1.133.561 1.796.467 2.456-.28.66-.749 2.834-3.27 3.588-4.389.755-1.12 1.511-.935 2.552-.56 1.04.372 6.614 3.08 7.747 3.64s1.89.84 2.174 1.307c.284.465.284 2.707-.66 5.32Z"/>
</svg>
