<svg xmlns="http://www.w3.org/2000/svg" width="84" height="62" fill="currentColor" viewBox="0 0 84 62">
  <path d="M81.205 10.84c-.765-4.223-4.41-7.298-8.64-8.258C66.235 1.239 54.52.279 41.845.279c-12.668 0-24.57.96-30.907 2.303-4.223.96-7.875 3.84-8.64 8.257C1.525 15.64.76 22.36.76 31s.765 15.36 1.725 20.16c.773 4.223 4.418 7.298 8.64 8.258 6.72 1.342 18.24 2.302 30.915 2.302s24.195-.96 30.915-2.302c4.222-.96 7.868-3.84 8.64-8.258.765-4.8 1.725-11.715 1.92-20.16-.39-8.64-1.35-15.36-2.31-20.16ZM31.48 44.44V17.56L54.903 31 31.48 44.44Z"/>
</svg>
