<svg xmlns="http://www.w3.org/2000/svg" width="88" height="88" fill="currentColor" viewBox="0 0 88 88">
  <path d="M86.036 42.053h.022a1.925 1.925 0 0 0 1.912-2.095C86.042 18.755 69.256 1.963 48.05.032a1.92 1.92 0 0 0-2.095 1.935c.334 28.178 4.052 39.692 40.08 40.086Zm0 3.894c-36.028.393-39.744 11.907-40.078 40.085a1.92 1.92 0 0 0 2.095 1.936C69.257 86.036 86.044 69.246 87.97 48.04a1.918 1.918 0 0 0-.503-1.476c-.37-.4-.887-.597-1.43-.618ZM39.82.04C18.683 2.028 1.95 18.817.032 39.961a1.918 1.918 0 0 0 1.912 2.094h.023c35.91-.413 39.618-11.922 39.956-40.08a1.926 1.926 0 0 0-.62-1.435A1.937 1.937 0 0 0 39.82.041ZM1.965 45.945c-.597-.068-1.065.216-1.432.616-.369.4-.551.935-.503 1.476 1.918 21.145 18.653 37.934 39.79 39.921a1.923 1.923 0 0 0 2.1-1.935c-.337-28.157-4.043-39.666-39.955-40.078Z"/>
</svg>
